:SAMPLES-PER-SECOND 30
:FULLY-SPECIFIED
:DEGREES
293
root  13.1000669 40.4931106 -3.159222265 -7.122839928 -47.82949829 -5.612649441
lfemur  -18.49170113 -6.002800465 -1.872128844
ltibia  -1.491570742e-006 -8.364404493e-007 47.55740356
lfoot  5.521815751e-007 1.655908108 6.978300571
ltoes  -4.250644065 -19.5611806 -102.515957
rfemur  -13.74319935 10.37080097 8.484677315
rtibia  -8.727266732e-007 2.533748784e-007 66.28540039
rfoot  -2.316020982e-006 2.98947978 -0.01291005686
rtoes  5.373923086 19.29304026 -105.8922705
lowerback  9.864210129 3.204760075 -4.687109947
upperback  3.853600025 3.575139999 -4.716609955
thorax  -1.48992002 1.721670032 -2.6603899
rclavicle  0 -9.442270133e-015 7.951389973e-016
rhumerus  -8.129770279 8.959400177 -70.16359711
rradius  -7.782816926e-012 0.001642658608 137.677002
rwrist  0.002739921212 0.003270594636 -1.821269989
rthumb  -92.93752616 -24.25625642 -97.11982154
rhand  -7.920061211e-032 -33.2840004 9.303460121
rfingers  -90 -7.125020027 -90
lclavicle  0 -9.442270133e-015 7.951389973e-016
lhumerus  9.694688797 -13.6413002 65.76300049
lradius  1.032090125e-011 0.005718162749 142.0559998
lwrist  1.816137865e-011 1.409039812e-011 6.063549995
lthumb  89.89689403 5.08795885 91.16245106
lhand  -1.496451383e-031 -27.76390076 20.11240005
lfingers  90 7.125020027 -90
lowerneck  5.103169918 8.689169884 -3.105020046
upperneck  19.61529922 9.922559738 10.55309963
head  4.308609962 5.054910183 3.932310104
294
root  13.14315496 40.32155435 -3.148711197 -7.488339901 -48.67979813 -5.06595993
lfemur  -18.52199173 -5.795189857 -2.428781748
ltibia  -1.491570742e-006 -8.364404493e-007 47.97708893
lfoot  5.521815751e-007 0.07503141463 8.089229584
ltoes  -4.250644065 -19.5611806 -102.515957
rfemur  -13.23929596 9.34594059 8.455518723
rtibia  -8.727266732e-007 2.533748784e-007 68.41119385
rfoot  -2.316020982e-006 3.175226212 -0.3627940714
rtoes  5.373923086 19.29304026 -105.8922705
lowerback  9.690179825 3.190720081 -4.656300068
upperback  3.691999912 3.571619987 -4.590680122
thorax  -1.569620013 1.723150015 -2.540970087
rclavicle  0 -9.442270133e-015 7.951389973e-016
rhumerus  -8.21117115 10.34609985 -70.14019775
rradius  -7.782817793e-012 0.001642658608 137.9609985
rwrist  0.002739921212 0.003270594636 -1.281749964
rthumb  -92.93752616 -24.25625642 -97.11982154
rhand  -7.920061211e-032 -33.2840004 9.303460121
rfingers  -90 -7.125020027 -90
lclavicle  0 -9.442270133e-015 7.951389973e-016
lhumerus  8.999019623 -13.85400009 66.20310211
lradius  1.032090125e-011 0.005718162749 142.0679932
lwrist  1.816137865e-011 1.409039812e-011 5.377639771
lthumb  89.89689403 5.08795885 91.16245106
lhand  -1.496451383e-031 -27.76390076 20.11240005
lfingers  90 7.125020027 -90
lowerneck  5.155379772 8.582369804 -2.999759912
upperneck  19.64629936 9.799990654 10.31890011
head  4.338900089 4.987790108 3.844249964
295
root  13.19557851 40.11577696 -3.20275562 -7.685520172 -49.04940033 -4.865169525
lfemur  -18.69499969 -5.420919418 -2.644630909
ltibia  -1.491570742e-006 -8.364404493e-007 48.64909744
lfoot  5.521815751e-007 -0.9056917429 8.586779594
ltoes  -4.250644065 -19.5611806 -102.515957
rfemur  -12.30910015 8.130809784 8.828098297
rtibia  -8.727266732e-007 2.533748784e-007 70.06539917
rfoot  -2.316020982e-006 3.212382793 -0.8161352873
rtoes  5.373923086 19.29304026 -105.8922705
lowerback  9.897100449 3.015209913 -4.693429947
upperback  3.607019901 3.3245399 -4.331870079
thorax  -1.792060018 1.602900028 -2.237449884
rclavicle  0 -9.442270133e-015 7.951389973e-016
rhumerus  -8.204979897 11.96350002 -70.17369843
rradius  -7.782816926e-012 0.001642658608 138.1439972
rwrist  0.002739921212 0.003270594636 -0.5576779842
rthumb  -92.93752616 -24.25625642 -97.11982154
rhand  -7.920061211e-032 -33.2840004 9.303460121
rfingers  -90 -7.125020027 -90
lclavicle  0 -9.442270133e-015 7.951389973e-016
lhumerus  7.802320957 -14.51720047 67.26889801
lradius  1.032089952e-011 0.005718162749 142.3769989
lwrist  1.816137865e-011 1.409039812e-011 4.600689888
lthumb  89.89689403 5.08795885 91.16245106
lhand  -1.496451383e-031 -27.76390076 20.11240005
lfingers  90 7.125020027 -90
lowerneck  4.909019947 8.505550385 -2.855989933
upperneck  19.72680092 9.730620384 10.04290009
head  4.433710098 4.955550194 3.753269911
296
root  13.23411146 39.90822139 -3.219288728 -7.520040035 -49.64120102 -5.141359806
lfemur  -18.75090218 -5.01513052 -2.518747568
ltibia  -1.491570742e-006 -8.364404493e-007 49.47490311
lfoot  5.521815751e-007 -2.032153606 8.918129921
ltoes  -4.250644065 -19.5611806 -102.515957
rfemur  -11.1291008 7.252460003 9.569399834
rtibia  -8.727266732e-007 2.533748784e-007 70.99819946
rfoot  -2.316020982e-006 3.442647457 -1.028000236
rtoes  5.373923086 19.29304026 -105.8922705
lowerback  9.853369713 2.890630007 -4.21600008
upperback  3.609910011 3.222739935 -4.051829815
thorax  -1.756989956 1.556249976 -2.196630001
rclavicle  0 -9.442270133e-015 7.951389973e-016
rhumerus  -8.261300087 13.5298996 -70.28299713
rradius  -7.782816926e-012 0.001642658608 138.2980042
rwrist  0.002739921212 0.003270594636 -0.03064222261
rthumb  -92.93752616 -24.25625642 -97.11982154
rhand  -7.920061211e-032 -33.2840004 9.303460121
rfingers  -90 -7.125020027 -90
lclavicle  0 -9.442270133e-015 7.951389973e-016
lhumerus  6.686988831 -14.90100002 68.45800018
lradius  1.032090038e-011 0.005718162749 142.628006
lwrist  1.816137865e-011 1.409039812e-011 4.457389832
lthumb  89.89689403 5.08795885 91.16245106
lhand  -1.496451383e-031 -27.76390076 20.11240005
lfingers  90 7.125020027 -90
lowerneck  4.634910107 8.415019989 -2.800849915
upperneck  19.66900063 9.640600204 9.870499611
head  4.479700089 4.913269997 3.702769995
